<?xml version="1.0" encoding="utf-8"?>
<!-- Generator: Adobe Illustrator 28.2.0, SVG Export Plug-In . SVG Version: 6.00 Build 0)  -->
<svg version="1.1" id="Layer_1" xmlns="http://www.w3.org/2000/svg" xmlns:xlink="http://www.w3.org/1999/xlink" x="0px" y="0px"
	 viewBox="0 0 148 26" style="enable-background:new 0 0 148 26;" xml:space="preserve">
<style type="text/css">
	.st0{fill:#1D9EFF;}
</style>
<g>
	<path class="st0" d="M6.7,2.2h6.1v10.7c0,7.1-3.1,10.7-9.2,10.7H0.6l1.5-6.1h1.5c2,0,3.1-1.5,3.1-4.6V2.2z"/>
	<path class="st0" d="M15.2,12.9V2.2h6.1v10.7c0,3.1,1,4.6,3.1,4.6c2,0,3.1-1.5,3.1-4.6V2.2h6.1v10.7c0,7.1-3.1,10.7-9.2,10.7
		S15.2,20.1,15.2,12.9z"/>
	<path class="st0" d="M42.1,12.9v10.7H36V2.2h6.1l7.7,10.7V2.2h6.1v21.4h-6.1L42.1,12.9z"/>
	<path class="st0" d="M69.7,8.6c-0.5-0.2-1.1-0.3-1.7-0.3c-1.3,0-2.3,0.4-3.2,1.3c-0.9,0.9-1.3,2-1.3,3.2c0,1.3,0.4,2.3,1.3,3.2
		c0.9,0.9,2,1.3,3.2,1.3c1.3,0,2.3-0.4,3.2-1.3c0.1-0.1,0.1-0.1,0.2-0.2h-3.4l1.5-6.1h8.8c0.3,1,0.4,2,0.4,3.1c0,3-1,5.5-3.1,7.6
		c-2.1,2.1-4.6,3.1-7.6,3.1c-3,0-5.5-1-7.6-3.1c-2.1-2.1-3.1-4.6-3.1-7.6c0-3,1-5.5,3.1-7.6c2.1-2.1,4.6-3.1,7.6-3.1
		c1.1,0,2.2,0.2,3.2,0.5L69.7,8.6z"/>
	<path class="st0" d="M79.8,23.6V2.2h10.7c6.1,0,9.2,3.6,9.2,10.7c0,7.1-3.1,10.7-9.2,10.7H79.8z M85.9,8.3v9.2h4.6
		c2,0,3.1-1.5,3.1-4.6s-1-4.6-3.1-4.6H85.9z"/>
	<path class="st0" d="M108.5,14.4h2.6L109,8.3l-4.6,15.3h-6.1L106,2.2h6.1l7.7,21.4h-6.1l-1.1-3.1h-7.2L108.5,14.4z"/>
	<path class="st0" d="M126,23.6h-6.1V2.2h12.3c5.1,0,7.7,2.6,7.7,7.7c0,5.1-2,7.7-6.1,7.7l6.1,6.1h-7.7l-6.1-6.1l1.5-6.1h4.6
		c1,0,1.5-0.5,1.5-1.5c0-1-0.5-1.5-1.5-1.5H126V23.6z"/>
	<path class="st0" d="M147.4,2.2v21.4h-6.1V2.2H147.4z"/>
</g>
</svg>
